HIERARCHY
ROOT Hips
{
	OFFSET -0.001795 -0.223333 0.028219
	CHANNELS 6 Xposition Yposition Zposition Zrotation Yrotation Xrotation 
	JOINT LeftUpLeg
	{
		OFFSET 0.069520 -0.091406 -0.006815
		CHANNELS 3 Zrotation Yrotation Xrotation
		JOINT LeftLeg
		{
			OFFSET 0.034277 -0.375199 -0.004496
			CHANNELS 3 Zrotation Yrotation Xrotation
			JOINT LeftFoot
			{
				OFFSET -0.013596 -0.397961 -0.043693
				CHANNELS 3 Zrotation Yrotation Xrotation
				JOINT LeftToe
				{
					OFFSET 0.026358 -0.055791 0.119288
					CHANNELS 3 Zrotation Yrotation Xrotation
					End Site
					{
						OFFSET 0.000000 0.000000 0.000000
					}
				}
			}
		}
	}
	JOINT RightUpLeg
	{
		OFFSET -0.067670 -0.090522 -0.004320
		CHANNELS 3 Zrotation Yrotation Xrotation
		JOINT RightLeg
		{
			OFFSET -0.038290 -0.382569 -0.008850
			CHANNELS 3 Zrotation Yrotation Xrotation
			JOINT RightFoot
			{
				OFFSET 0.015774 -0.398415 -0.042312
				CHANNELS 3 Zrotation Yrotation Xrotation
				JOINT RightToe
				{
					OFFSET -0.025372 -0.048144 0.123348
					CHANNELS 3 Zrotation Yrotation Xrotation
					End Site
					{
						OFFSET 0.000000 0.000000 0.000000
					}
				}
			}
		}
	}
	JOINT Spine
	{
		OFFSET -0.002533 0.108963 -0.026696
		CHANNELS 3 Zrotation Yrotation Xrotation
		JOINT Spine1
		{
			OFFSET 0.005487 0.135180 0.001092
			CHANNELS 3 Zrotation Yrotation Xrotation
			JOINT Spine2
			{
				OFFSET 0.001457 0.052922 0.025425
				CHANNELS 3 Zrotation Yrotation Xrotation
				JOINT Neck
				{
					OFFSET -0.002778 0.213870 -0.042857
					CHANNELS 3 Zrotation Yrotation Xrotation
					JOINT Head
					{
						OFFSET 0.005152 0.064970 0.051349
						CHANNELS 3 Zrotation Yrotation Xrotation
						End Site
						{
							OFFSET 0.000000 0.000000 0.000000
						}
					}
				}
				JOINT LeftShoulder
				{
					OFFSET 0.078845 0.121749 -0.034090
					CHANNELS 3 Zrotation Yrotation Xrotation
					JOINT LeftArm
					{
						OFFSET 0.090977 0.030469 -0.008868
						CHANNELS 3 Zrotation Yrotation Xrotation
						JOINT LeftForeArm
						{
							OFFSET 0.259612 -0.012772 -0.027456
							CHANNELS 3 Zrotation Yrotation Xrotation
							JOINT LeftHand
							{
								OFFSET 0.249234 0.008986 -0.001171
								CHANNELS 3 Zrotation Yrotation Xrotation
								End Site
								{
									OFFSET 0.000000 0.000000 0.000000
								}
							}
						}
					}
				}
				JOINT RightShoulder
				{
					OFFSET -0.081759 0.118833 -0.038615
					CHANNELS 3 Zrotation Yrotation Xrotation
					JOINT RightArm
					{
						OFFSET -0.096012 0.032551 -0.009143
						CHANNELS 3 Zrotation Yrotation Xrotation
						JOINT RightForeArm
						{
							OFFSET -0.253742 -0.013329 -0.021401
							CHANNELS 3 Zrotation Yrotation Xrotation
							JOINT RightHand
							{
								OFFSET -0.255298 0.007772 -0.005559
								CHANNELS 3 Zrotation Yrotation Xrotation
								End Site
								{
									OFFSET 0.000000 0.000000 0.000000
								}
							}
						}
					}
				}
			}
		}
	}
}
MOTION
Frames: 13
Frame Time: 0.050000
0.000000 0.932436 0.000000 -6.462872 -17.730855 9.999629 13.504860 1.716997 -21.058776 -1.659277 0.483857 13.597219 -0.212841 1.728393 9.910196 0.000000 0.000000 0.000000 -3.987874 1.549712 -15.293248 4.252814 0.061267 11.433428 -9.721164 -24.047420 14.842607 0.000000 0.000000 0.000000 -10.599685 3.350061 27.522722 0.660023 -0.027070 -19.995767 -4.902738 6.636093 25.267950 -4.405245 3.993665 -7.264482 0.000000 0.000000 0.000000 -16.486724 -20.761338 10.752923 -55.870108 -44.730319 13.760249 -18.417671 -45.768970 11.191804 0.000000 0.000000 0.000000 -5.026757 17.230817 5.504801 36.660617 21.440905 0.739359 75.003205 76.907342 65.744599 0.000000 0.000000 0.000000 
-0.000358 0.932211 -0.000235 -6.632533 -19.149913 9.745626 13.878627 1.822910 -19.951323 -2.044933 0.609871 13.058072 0.415345 2.641499 9.754979 0.000000 0.000000 0.000000 -3.190959 1.598004 -15.236214 2.424110 0.345215 10.977501 -8.656603 -22.674465 15.673863 0.000000 0.000000 0.000000 -10.990907 3.501404 26.944661 -0.907219 0.368411 -20.498927 -4.640106 5.579229 26.197277 -3.589661 3.199884 -4.900146 0.000000 0.000000 0.000000 -18.232225 -19.969559 11.196716 -53.128693 -42.731454 11.488259 -18.403056 -51.675267 13.222720 0.000000 0.000000 0.000000 -8.223423 17.236755 5.252100 37.479736 24.531496 1.414433 69.964335 74.540093 58.164460 0.000000 0.000000 0.000000 
-0.000586 0.930808 -0.000567 -7.167167 -17.499665 10.312040 14.729716 2.014717 -21.216786 -2.409577 0.676222 13.612482 -0.281687 1.528385 9.346212 0.000000 0.000000 0.000000 -2.285315 1.589396 -14.937890 1.661965 0.382786 10.186950 -8.729131 -22.688248 15.767272 0.000000 0.000000 0.000000 -10.109112 3.172144 27.617802 -1.079377 0.413032 -19.596618 -4.772252 5.627593 23.781890 -2.562890 2.353740 -3.382072 0.000000 0.000000 0.000000 -20.119442 -21.805675 12.253966 -52.033958 -41.109761 10.512984 -17.072777 -50.731258 11.926112 0.000000 0.000000 0.000000 -7.797272 17.949887 5.499382 36.855994 22.398209 1.087928 76.077222 74.247198 63.766038 0.000000 0.000000 0.000000 
-0.001016 0.932021 -0.000939 -7.421103 -18.193412 10.241174 15.225078 2.198753 -21.145206 -2.799664 0.834046 14.163804 -0.124589 1.857903 9.832354 0.000000 0.000000 0.000000 -2.670249 1.638375 -15.424042 1.952527 0.355460 10.297600 -7.710626 -21.508364 17.725112 0.000000 0.000000 0.000000 -10.368660 3.270058 27.364886 -1.662241 0.556381 -19.851123 -5.265835 5.112471 24.341938 -2.477485 2.238696 -0.315909 0.000000 0.000000 0.000000 -20.276181 -21.409747 12.284964 -52.906575 -42.065899 11.269241 -13.233131 -49.326135 9.738537 0.000000 0.000000 0.000000 -8.781687 17.754232 5.375243 36.121760 23.442520 1.184475 74.494967 73.218510 60.864546 0.000000 0.000000 0.000000 
-0.001571 0.932172 -0.001077 -7.681134 -18.366848 9.917204 15.809288 2.417086 -21.372630 -3.266686 1.051648 15.455069 -0.221854 1.745631 10.018153 0.000000 0.000000 0.000000 -2.319392 1.659328 -15.428465 1.905488 0.417509 11.055796 -7.629260 -21.407140 17.690057 0.000000 0.000000 0.000000 -10.974755 3.537638 27.755020 -1.567679 0.524658 -19.557980 -5.006915 5.687287 23.846648 -2.516192 2.289363 -1.610491 0.000000 0.000000 0.000000 -18.364326 -21.263071 11.601590 -55.522669 -42.532520 12.609976 -9.193282 -49.426717 7.832637 0.000000 0.000000 0.000000 -9.177706 17.375815 5.226296 36.736023 24.182155 1.547905 72.327070 73.558596 59.546980 0.000000 0.000000 0.000000 
-0.002151 0.933187 -0.001014 -7.688017 -17.849725 10.224189 15.592998 2.310076 -21.561434 -2.806443 0.862222 14.911482 -0.409802 1.521590 10.302923 0.000000 0.000000 0.000000 -2.508586 1.646485 -15.454964 2.660505 0.279949 10.900909 -8.073916 -21.948921 17.439571 0.000000 0.000000 0.000000 -11.004483 3.529009 27.863909 -1.618881 0.579435 -20.681676 -4.888415 5.681463 24.240921 -2.357603 2.156271 0.127870 0.000000 0.000000 0.000000 -18.627004 -22.001344 12.013709 -54.784173 -42.173229 12.110308 -8.232534 -49.516538 7.340762 0.000000 0.000000 0.000000 -9.812148 17.757523 5.242325 37.304502 23.339259 1.368164 73.267631 73.824762 60.785371 0.000000 0.000000 0.000000 
-0.002565 0.933647 -0.000699 -7.628323 -17.453682 10.219152 15.561948 2.294430 -21.814088 -2.801450 0.856938 15.124582 -0.622740 1.246647 10.505202 0.000000 0.000000 0.000000 -2.295340 1.680233 -15.669273 2.282214 0.356348 11.287851 -8.315207 -22.317915 17.929834 0.000000 0.000000 0.000000 -10.937173 3.518060 28.160652 -1.751970 0.609788 -20.115108 -5.324549 5.503099 23.479267 -2.536278 2.310139 -0.260174 0.000000 0.000000 0.000000 -18.724711 -22.350109 12.173737 -54.711239 -42.462038 12.323571 -8.358081 -48.140873 7.086274 0.000000 0.000000 0.000000 -9.672105 18.192371 5.376777 37.603936 23.255186 1.443689 69.878932 73.683697 57.693892 0.000000 0.000000 0.000000 
-0.002769 0.934287 -0.000260 -7.700617 -17.344752 10.403302 15.520241 2.304669 -22.115869 -2.591960 0.803840 15.329116 -0.694458 1.184124 10.721552 0.000000 0.000000 0.000000 -2.146227 1.716644 -15.890440 2.495330 0.341948 11.626100 -8.675124 -22.798237 17.684991 0.000000 0.000000 0.000000 -10.666443 3.436205 28.267102 -2.161506 0.711131 -20.011979 -5.439091 5.445357 23.131814 -2.506246 2.279790 0.322322 0.000000 0.000000 0.000000 -19.477431 -23.164885 12.786930 -53.725322 -42.193164 11.828173 -9.114035 -47.369830 7.233622 0.000000 0.000000 0.000000 -9.375722 18.391603 5.464293 37.985259 23.544817 1.571289 67.678260 73.014328 55.233512 0.000000 0.000000 0.000000 
-0.002911 0.934384 0.000306 -7.696369 -17.703205 10.406359 15.450555 2.298627 -21.891975 -2.508112 0.789584 15.214101 -0.522210 1.426030 10.689047 0.000000 0.000000 0.000000 -2.002140 1.770042 -16.193255 2.715915 0.354892 12.268405 -9.220654 -23.568524 17.273302 0.000000 0.000000 0.000000 -10.622884 3.476165 28.408403 -2.483443 0.788420 -20.054521 -5.508458 5.363863 22.917675 -2.852846 2.582869 -0.105979 0.000000 0.000000 0.000000 -19.052572 -23.487815 12.923064 -53.615928 -42.250801 11.879431 -9.939460 -47.489862 7.621317 0.000000 0.000000 0.000000 -9.547587 18.574575 5.511824 38.356479 23.929301 1.716959 63.703060 72.733116 51.472500 0.000000 0.000000 0.000000 
-0.003176 0.934642 0.000965 -7.657024 -17.881050 10.388511 15.447538 2.310044 -21.802453 -2.580786 0.820805 15.253505 -0.461768 1.526457 10.763527 0.000000 0.000000 0.000000 -1.950512 1.792197 -16.311759 2.745603 0.385118 12.734774 -9.292153 -23.651361 16.818073 0.000000 0.000000 0.000000 -10.618874 3.451887 28.168704 -2.789580 0.858675 -19.565084 -5.527189 5.111566 22.612165 -3.230660 2.889802 -1.382337 0.000000 0.000000 0.000000 -18.555756 -23.497022 12.882184 -53.884433 -42.584956 12.228821 -9.924927 -47.503907 7.629272 0.000000 0.000000 0.000000 -9.935821 18.809048 5.554811 38.623635 24.769403 1.992471 61.563482 72.062389 48.963195 0.000000 0.000000 0.000000 
-0.003677 0.934590 0.001631 -7.616762 -18.403065 10.119757 15.733607 2.386737 -21.327652 -3.141177 1.008512 15.321613 -0.286549 1.781995 10.762147 0.000000 0.000000 0.000000 -1.883160 1.771180 -16.080777 2.728486 0.424707 13.091272 -9.158168 -23.409453 15.945252 0.000000 0.000000 0.000000 -10.910865 3.534433 27.826704 -2.713527 0.824634 -19.301476 -5.436967 5.211069 22.627982 -3.449330 3.075253 -1.681843 0.000000 0.000000 0.000000 -18.241175 -23.433033 12.811457 -53.365840 -42.780766 12.165835 -10.265935 -48.322883 7.957828 0.000000 0.000000 0.000000 -10.175803 19.386637 5.672825 38.799504 25.770676 2.293394 61.334142 72.027172 48.697966 0.000000 0.000000 0.000000 
-0.004389 0.934618 0.002033 -7.569473 -18.644137 9.869102 15.804652 2.388940 -20.937159 -3.294360 1.062805 15.298339 -0.208167 1.893134 10.752908 0.000000 0.000000 0.000000 -1.833575 1.744369 -15.841604 2.682190 0.452455 13.286949 -9.077256 -23.253606 15.495606 0.000000 0.000000 0.000000 -10.915585 3.526120 27.687400 -2.732952 0.824408 -19.146802 -5.281418 5.112350 22.778857 -3.698457 3.269972 -2.465998 0.000000 0.000000 0.000000 -17.947811 -23.338446 12.747643 -52.713032 -43.286626 12.218868 -10.645543 -48.830998 8.242391 0.000000 0.000000 0.000000 -10.597477 19.692317 5.703904 38.962889 26.513519 2.502786 62.931524 71.734025 49.691563 0.000000 0.000000 0.000000 
-0.005119 0.934728 0.002148 -7.509219 -18.949743 9.775244 16.024536 2.446324 -20.674423 -3.725424 1.196444 15.206990 -0.119274 2.041106 10.864744 0.000000 0.000000 0.000000 -1.829379 1.730102 -15.712465 2.787517 0.439674 13.255608 -9.162326 -23.355264 15.160625 0.000000 0.000000 0.000000 -11.137647 3.582530 27.408501 -2.452056 0.742154 -19.098000 -5.227319 5.365489 22.807621 -3.737118 3.301511 -2.990909 0.000000 0.000000 0.000000 -18.242480 -23.538571 12.909583 -51.207168 -43.630305 11.851458 -11.214695 -49.393705 8.586113 0.000000 0.000000 0.000000 -10.889665 19.917161 5.717319 39.575580 27.109857 2.767766 66.448441 71.477362 52.521024 0.000000 0.000000 0.000000 
